<?xml version="1.0" encoding="UTF-8"?>
<svg version="1.1" xmlns="http://www.w3.org/2000/svg" width="500" height="500">
<path d="M0 0 C2.5 1.375 2.5 1.375 4 4 C4.75993934 8.76545292 4.98592236 12.6197087 2.125 16.625 C0 18 0 18 -2 18 C-2.495 19.485 -2.495 19.485 -3 21 C-4.65788785 22.34423339 -6.32576317 23.67618483 -8 25 C-8.721875 25.9075 -9.44375 26.815 -10.1875 27.75 C-10.785625 28.4925 -11.38375 29.235 -12 30 C-12.66 30 -13.32 30 -14 30 C-14.33 30.99 -14.66 31.98 -15 33 C-16.9375 35.1875 -16.9375 35.1875 -19 37 C-19.66 37 -20.32 37 -21 37 C-21.33 37.99 -21.66 38.98 -22 40 C-23.41433206 40.2236337 -24.83167618 40.42826476 -26.25 40.625 C-27.03890625 40.74101563 -27.8278125 40.85703125 -28.640625 40.9765625 C-31.3676755 41.00365241 -32.72832638 40.47633931 -35 39 C-37.47851922 34.86913463 -37.10569271 31.5928774 -36 27 C-34.5625 25.0625 -34.5625 25.0625 -33 24 C-32.34 24 -31.68 24 -31 24 C-30.67 23.01 -30.34 22.02 -30 21 C-29.34 21 -28.68 21 -28 21 C-27.67 20.01 -27.34 19.02 -27 18 C-26.34 18 -25.68 18 -25 18 C-25 17.34 -25 16.68 -25 16 C-23.57421875 14.6328125 -23.57421875 14.6328125 -21.6875 13.125 C-19.02376711 10.93386488 -17.03869475 8.78979281 -15 6 C-14.34 6 -13.68 6 -13 6 C-12.731875 5.38125 -12.46375 4.7625 -12.1875 4.125 C-9.46814837 -0.74120819 -5.01460599 -0.76682104 0 0 Z " fill="#FFFFFF" transform="translate(362,83)"/>
<path d="M0 0 C9.12256267 -0.62674095 9.12256267 -0.62674095 12.625 1.875 C14 4 14 4 14 6 C14.928125 6.37125 14.928125 6.37125 15.875 6.75 C18.38710296 8.22770762 18.76107344 9.43955177 20 12 C20.99 12.33 21.98 12.66 23 13 C27.77272727 17.31818182 27.77272727 17.31818182 29 21 C31.00016466 22.20882096 31.00016466 22.20882096 33 23 C33 23.66 33 24.32 33 25 C33.99 25.33 34.98 25.66 36 26 C38.50031654 29.75047482 38.53603554 31.55856266 38 36 C35.5748989 39.35234564 34.1549168 40.77884572 30.0625 41.5625 C24.58324938 40.55610703 20.59154775 37.14409355 17 33 C17 32.34 17 31.68 17 31 C16.01 30.67 15.02 30.34 14 30 C14 29.34 14 28.68 14 28 C13.01 27.67 12.02 27.34 11 27 C11 26.34 11 25.68 11 25 C10.34 25 9.68 25 9 25 C9 24.34 9 23.68 9 23 C8.34 23 7.68 23 7 23 C7 22.34 7 21.68 7 21 C6.01 20.67 5.02 20.34 4 20 C4 19.34 4 18.68 4 18 C3.34 18 2.68 18 2 18 C-2 13.52941176 -2 13.52941176 -2 11 C-2.66 11 -3.32 11 -4 11 C-3.125 4.25 -3.125 4.25 -2 2 C-1.34 2 -0.68 2 0 2 C0 1.34 0 0.68 0 0 Z " fill="#FFFFFF" transform="translate(217,83)"/>
<path d="M0 0 C2.86223236 0.61373403 4.4700403 2.12561092 6.1159668 4.49682617 C9.69044406 12.27772706 8.02994063 22.9569738 7.75390625 31.2421875 C7.72683594 32.53833984 7.69976562 33.83449219 7.671875 35.16992188 C7.63191406 36.41708984 7.59195312 37.66425781 7.55078125 38.94921875 C7.51823242 40.07432861 7.48568359 41.19943848 7.45214844 42.35864258 C6.95750604 45.74758956 6.04131856 47.6973704 4.00390625 50.4296875 C1.8828125 51.20703125 1.8828125 51.20703125 -0.43359375 51.3671875 C-1.57634766 51.47353516 -1.57634766 51.47353516 -2.7421875 51.58203125 C-5.41043801 51.40168156 -6.81581088 50.98967758 -8.99609375 49.4296875 C-11.50570079 44.8685152 -11.1869778 40.55814557 -11.0078125 35.515625 C-10.98515823 34.66416901 -10.96250397 33.81271301 -10.93916321 32.93545532 C-10.88934807 31.14171961 -10.83440707 29.34811981 -10.7746582 27.5546875 C-10.68368698 24.80750294 -10.60906936 22.06024183 -10.53710938 19.3125 C-10.48663426 17.56768038 -10.43523376 15.82288723 -10.3828125 14.078125 C-10.3598259 13.25621674 -10.33683929 12.43430847 -10.31315613 11.5874939 C-10.20009512 8.31374908 -10.03791607 5.55515447 -8.99609375 2.4296875 C-5.81645419 0.30992779 -3.80120567 -0.12600682 0 0 Z " fill="#FFFFFF" transform="translate(291.99609375,54.5703125)"/>
<path d="M0 0 C0.86066574 0.00007553 1.72133148 0.00015106 2.608078 0.00022888 C3.53316666 0.00539017 4.45825531 0.01055145 5.41137695 0.01586914 C6.36156204 0.01728409 7.31174713 0.01869904 8.29072571 0.02015686 C11.3270685 0.02575664 14.36333768 0.03830907 17.3996582 0.05102539 C19.45759985 0.05604042 21.51554265 0.06060332 23.57348633 0.06469727 C28.61973867 0.07572599 33.66593595 0.09299046 38.7121582 0.11352539 C39.2071582 1.59852539 39.2071582 1.59852539 39.7121582 3.11352539 C40.3721582 3.11352539 41.0321582 3.11352539 41.7121582 3.11352539 C41.7121582 6.74352539 41.7121582 10.37352539 41.7121582 14.11352539 C36.55348366 17.238164 32.57703767 17.54326016 26.7355957 17.47680664 C25.88792633 17.47730515 25.04025696 17.47780365 24.16690063 17.47831726 C22.38345991 17.47598622 20.6000153 17.46631522 18.81665039 17.44970703 C16.08881239 17.42603974 13.36194836 17.42916271 10.6340332 17.43579102 C8.89704822 17.43021599 7.16006734 17.42310722 5.4230957 17.41430664 C4.60948578 17.41521805 3.79587585 17.41612946 2.95761108 17.41706848 C-4.26139629 17.32666254 -4.26139629 17.32666254 -7.2878418 15.11352539 C-9.06194137 11.18736591 -9.55830523 7.29372945 -8.6003418 3.11352539 C-6.4328292 -0.18935095 -3.64257207 -0.01068203 0 0 Z " fill="#FFFFFF" transform="translate(352.287841796875,150.886474609375)"/>
<path d="M0 0 C4.95537204 4.95537204 3.56963114 16.39795859 4 23 C5.98 23.66 7.96 24.32 10 25 C10 25.66 10 26.32 10 27 C10.7425 27.103125 11.485 27.20625 12.25 27.3125 C15.1973519 28.04933797 16.78383074 28.94799142 19 31 C19 31.66 19 32.32 19 33 C19.99 33.33 20.98 33.66 22 34 C27.46126878 38.32350445 29.0255126 45.43042202 30 52 C30.63375546 59.1394493 29.32642967 66.00071489 28 73 C28.825 73.20625 29.65 73.4125 30.5 73.625 C38.88676437 76.91980029 45.25243869 83.2898949 49.75 91 C54.60522445 102.65253867 52.96105403 110.39977035 49 122 C48.34 122 47.68 122 47 122 C46.34 123.65 45.68 125.3 45 127 C44.34 127 43.68 127 43 127 C42.67 127.99 42.34 128.98 42 130 C41.34 130 40.68 130 40 130 C39.731875 130.598125 39.46375 131.19625 39.1875 131.8125 C38.00082594 133.99847854 36.90400887 135.41332594 35 137 C34.34 137 33.68 137 33 137 C32.63316101 137.8538327 32.63316101 137.8538327 32.25891113 138.72491455 C30.77419803 141.40806596 29.02414647 143.23006655 26.85742188 145.40136719 C26.00313599 146.2619574 25.1488501 147.12254761 24.26867676 148.00921631 C23.34470093 148.92914368 22.4207251 149.84907104 21.46875 150.796875 C20.51203629 151.75493637 19.5556196 152.71329443 18.5994873 153.67193604 C16.59869437 155.67567264 14.59434051 157.67575889 12.58740234 159.67333984 C10.01137893 162.2379383 7.44447901 164.81145211 4.88014984 167.38773727 C2.9089754 169.36612446 0.93308003 171.339741 -1.04429626 173.3119278 C-2.45512771 174.7207719 -3.86192389 176.13365318 -5.26867676 177.54656982 C-6.12296265 178.39455139 -6.97724854 179.24253296 -7.85742188 180.11621094 C-8.61083862 180.8680365 -9.36425537 181.61986206 -10.14050293 182.39447021 C-12 184 -12 184 -14 184 C-14.495 184.99 -14.495 184.99 -15 186 C-15.66 186 -16.32 186 -17 186 C-15.41244952 181.82898227 -12.32557564 179.31257615 -9.0625 176.4375 C-5.05649539 172.90136349 -5.05649539 172.90136349 -1.24609375 169.16015625 C0 168 0 168 2 168 C2.31843872 167.19260376 2.31843872 167.19260376 2.64331055 166.36889648 C4.50380847 163.12030708 7.05637936 160.69789167 9.70703125 158.09765625 C10.26944016 157.53807724 10.83184906 156.97849823 11.41130066 156.40196228 C13.20704701 154.61737822 15.00961047 152.83986445 16.8125 151.0625 C18.01413235 149.87090689 19.2153092 148.67885424 20.41601562 147.48632812 C22.63366031 145.28497457 24.85395269 143.08636865 27.07739258 140.89086914 C28.97710528 139.01501728 30.86704449 137.13087921 32.75268555 135.24072266 C34.16128765 133.83625225 35.59480984 132.45588418 37.0625 131.11328125 C43.25832888 125.35465803 48.4865041 117.92624776 49.23828125 109.25 C49.44876233 100.03314431 48.3435972 90.49436699 41.75 83.40625 C36.18525579 78.93458055 29.66700345 75.50012629 23 73 C23.474375 71.948125 23.94875 70.89625 24.4375 69.8125 C28.87392309 59.32831148 27.10337749 50.3482987 23 40 C22.3539088 38.65657588 21.69532629 37.31861426 21 36 C20.34 36 19.68 36 19 36 C16.375 33.625 16.375 33.625 14 31 C14 30.34 14 29.68 14 29 C9.38 28.01 4.76 27.02 0 26 C-1 21 -1 21 0 18 C0.08021999 16.59175107 0.10765977 15.18002769 0.09765625 13.76953125 C0.09282227 12.56586914 0.09282227 12.56586914 0.08789062 11.33789062 C0.07951172 10.50451172 0.07113281 9.67113281 0.0625 8.8125 C0.05798828 7.96751953 0.05347656 7.12253906 0.04882812 6.25195312 C0.03705403 4.16793845 0.0191189 2.08396023 0 0 Z " fill="#FFFFFF" transform="translate(338,198)"/>
<path d="M0 0 C4.41706476 1.68500272 7.26314944 3.6184052 9.5 7.8125 C9.665 8.534375 9.83 9.25625 10 10 C5.78395577 15.16465418 1.38080761 20.01287003 -4 24 C-4.66 24 -5.32 24 -6 24 C-6.66 25.32 -7.32 26.64 -8 28 C-8.66 28 -9.32 28 -10 28 C-9.505 26.515 -9.505 26.515 -9 25 C-8.34 25 -7.68 25 -7 25 C-6.505 23.515 -6.505 23.515 -6 22 C-5.34 22 -4.68 22 -4 22 C-3.505 20.515 -3.505 20.515 -3 19 C-1.36739286 17.62517293 0.30225062 16.29352333 2 15 C4.93209662 12.59149206 5.49349304 10.74815151 6 7 C5.01 6.67 4.02 6.34 3 6 C2.505 5.01 2.505 5.01 2 4 C-0.83488805 3.05503732 -2.85558617 2.7738001 -5.8125 2.6875 C-6.64394531 2.65011719 -7.47539062 2.61273438 -8.33203125 2.57421875 C-15.67702554 3.74640671 -21.09535725 10.80508141 -26.08203125 15.81640625 C-26.93681564 16.66927719 -27.79160004 17.52214813 -28.67228699 18.40086365 C-30.47075166 20.19797137 -32.26670929 21.9975911 -34.06030273 23.79956055 C-36.81336753 26.56337092 -39.57698292 29.31630798 -42.34179688 32.06835938 C-44.08918366 33.81706706 -45.83595031 35.56639468 -47.58203125 37.31640625 C-48.82567192 38.55397423 -48.82567192 38.55397423 -50.09443665 39.81654358 C-51.23648811 40.96805153 -51.23648811 40.96805153 -52.40161133 42.14282227 C-53.0741243 42.81692642 -53.74663727 43.49103058 -54.43952942 44.18556213 C-56.21753068 46.02119971 -56.21753068 46.02119971 -57 49 C-58.32630484 50.34032497 -59.6606034 51.67275763 -61 53 C-65.71748537 59.60659026 -69.54778339 66.6660283 -73 74 C-74.64548168 70.70903664 -73.02157061 67.85614055 -71.96484375 64.4765625 C-70.79658999 61.47788686 -69.15520002 59.37072002 -67 57 C-66.67 56.01 -66.34 55.02 -66 54 C-65.34 54 -64.68 54 -64 54 C-63.731875 53.42765625 -63.46375 52.8553125 -63.1875 52.265625 C-61.95867364 49.92115366 -60.57477824 47.87595062 -59 45.75 C-58.484375 45.04359375 -57.96875 44.3371875 -57.4375 43.609375 C-56.963125 43.07828125 -56.48875 42.5471875 -56 42 C-55.34 42 -54.68 42 -54 42 C-53.67 41.01 -53.34 40.02 -53 39 C-52.34 39 -51.68 39 -51 39 C-51 38.34 -51 37.68 -51 37 C-50.34 37 -49.68 37 -49 37 C-48.773125 36.443125 -48.54625 35.88625 -48.3125 35.3125 C-46.62449964 32.33840412 -44.53323483 30.27991135 -42 28 C-41.34 28 -40.68 28 -40 28 C-39.773125 27.443125 -39.54625 26.88625 -39.3125 26.3125 C-37.62449964 23.33840412 -35.53323483 21.27991135 -33 19 C-32.34 19 -31.68 19 -31 19 C-30.78988281 18.46503906 -30.57976562 17.93007812 -30.36328125 17.37890625 C-28.47103033 14.0769555 -25.87638621 11.58736972 -23.1875 8.9375 C-22.66607422 8.40833984 -22.14464844 7.87917969 -21.60742188 7.33398438 C-14.89188149 0.65197977 -9.56228483 -1.32362804 0 0 Z " fill="#FFFFFF" transform="translate(216,166)"/>
<path d="M0 0 C3 1 3 1 3.984375 2.78515625 C6.33398638 9.77405134 6.3660898 14.42214577 3.6875 21.4375 C2 24 2 24 -0.0625 24.625 C-0.701875 24.74875 -1.34125 24.8725 -2 25 C-3.28436734 26.9837767 -3.28436734 26.9837767 -4 29 C-4.66 29 -5.32 29 -6 29 C-6.28875 29.5775 -6.5775 30.155 -6.875 30.75 C-7.24625 31.4925 -7.6175 32.235 -8 33 C-8.2784375 33.6496875 -8.556875 34.299375 -8.84375 34.96875 C-10.17174688 37.30171748 -11.41422734 38.25266393 -13.625 39.75 C-17.64657456 42.61206948 -20.96055328 45.87038935 -24.3359375 49.4609375 C-26 51 -26 51 -28 51 C-28.33 51.99 -28.66 52.98 -29 54 C-29.66 54 -30.32 54 -31 54 C-30.979375 54.763125 -30.95875 55.52625 -30.9375 56.3125 C-31 59 -31 59 -32 62 C-31.61067144 64.14255793 -31.61067144 64.14255793 -31 66 C-25.32262949 66.61607121 -25.32262949 66.61607121 -20.625 64 C-20.08875 63.34 -19.5525 62.68 -19 62 C-18.34 62 -17.68 62 -17 62 C-16.731875 61.360625 -16.46375 60.72125 -16.1875 60.0625 C-15 58 -15 58 -12 57 C-11.67 56.01 -11.34 55.02 -11 54 C-10.34 54 -9.68 54 -9 54 C-8.5978125 53.1028125 -8.5978125 53.1028125 -8.1875 52.1875 C-7.00082594 50.00152146 -5.90400887 48.58667406 -4 47 C-3.34 47 -2.68 47 -2 47 C-2 46.34 -2 45.68 -2 45 C3.2848962 41.66217082 7.92615902 41.25928768 14 42 C17.72363938 43.42175322 20.40145616 44.96836552 23 48 C22.505 48.99 22.505 48.99 22 50 C21.62875 49.566875 21.2575 49.13375 20.875 48.6875 C17.84036184 45.95632566 15.0016923 44.09685608 10.8203125 43.89453125 C4.3627914 44.3619949 0.34621245 46.65378755 -4.25 51.25 C-4.8275 51.8275 -5.405 52.405 -6 53 C-6.66 53 -7.32 53 -8 53 C-8.33257812 53.81404297 -8.33257812 53.81404297 -8.671875 54.64453125 C-10.42921541 57.76122615 -12.75485292 60.16225061 -15.25 62.6875 C-15.94802734 63.43483398 -15.94802734 63.43483398 -16.66015625 64.19726562 C-19.94661073 67.53351487 -22.32250878 68.78531681 -27 69 C-30.39815539 68.2097313 -31.65245686 67.44341711 -33.8125 64.6875 C-35.10546358 61.76131926 -35.48505567 60.15286189 -35 57 C-33.625 54.6875 -33.625 54.6875 -32 53 C-31.34 53 -30.68 53 -30 53 C-29.67 52.01 -29.34 51.02 -29 50 C-24.68181818 45.22727273 -24.68181818 45.22727273 -21 44 C-19.79117904 41.99983534 -19.79117904 41.99983534 -19 40 C-18.34 40 -17.68 40 -17 40 C-17 39.34 -17 38.68 -17 38 C-16.34 38 -15.68 38 -15 38 C-14.67 37.01 -14.34 36.02 -14 35 C-13.34 35 -12.68 35 -12 35 C-11.34 33.68 -10.68 32.36 -10 31 C-9.34 31 -8.68 31 -8 31 C-7.67 30.01 -7.34 29.02 -7 28 C-6.34 28 -5.68 28 -5 28 C-5 27.34 -5 26.68 -5 26 C-4.34 26 -3.68 26 -3 26 C-2.505 24.515 -2.505 24.515 -2 23 C-1.34 23 -0.68 23 0 23 C2.13765353 17.7271213 3.39110963 13.76886701 3 8 C1.58376759 4.74941676 1.58376759 4.74941676 0 2 C0 1.34 0 0.68 0 0 Z " fill="#FFFFFF" transform="translate(347,243)"/>
<path d="M0 0 C0.86066574 0.00007553 1.72133148 0.00015106 2.608078 0.00022888 C3.53316666 0.00539017 4.45825531 0.01055145 5.41137695 0.01586914 C6.36156204 0.01728409 7.31174713 0.01869904 8.29072571 0.02015686 C11.3270685 0.02575664 14.36333768 0.03830907 17.3996582 0.05102539 C19.45759985 0.05604042 21.51554265 0.06060332 23.57348633 0.06469727 C28.61973867 0.07572599 33.66593595 0.09299046 38.7121582 0.11352539 C39.2071582 1.59852539 39.2071582 1.59852539 39.7121582 3.11352539 C40.3721582 3.11352539 41.0321582 3.11352539 41.7121582 3.11352539 C41.7121582 6.74352539 41.7121582 10.37352539 41.7121582 14.11352539 C36.55348366 17.238164 32.57703767 17.54326016 26.7355957 17.47680664 C25.88792633 17.47730515 25.04025696 17.47780365 24.16690063 17.47831726 C22.38345991 17.47598622 20.6000153 17.46631522 18.81665039 17.44970703 C16.08881239 17.42603974 13.36194836 17.42916271 10.6340332 17.43579102 C8.89704822 17.43021599 7.16006734 17.42310722 5.4230957 17.41430664 C4.60948578 17.41521805 3.79587585 17.41612946 2.95761108 17.41706848 C-4.26139629 17.32666254 -4.26139629 17.32666254 -7.2878418 15.11352539 C-9.06194137 11.18736591 -9.55830523 7.29372945 -8.6003418 3.11352539 C-6.4328292 -0.18935095 -3.64257207 -0.01068203 0 0 Z M-7.2878418 5.11352539 C-7.09646696 10.15917541 -7.09646696 10.15917541 -4.2878418 14.11352539 C-0.48816158 15.53819245 3.57896442 15.29331451 7.58325195 15.31665039 C8.72226707 15.3252005 8.72226707 15.3252005 9.8842926 15.33392334 C11.48713802 15.34334948 13.09000261 15.34989782 14.69287109 15.35375977 C17.13779558 15.36347824 19.58188344 15.39452814 22.02661133 15.42602539 C23.58715323 15.43255498 25.14770112 15.43780563 26.70825195 15.44165039 C27.43547958 15.45399719 28.16270721 15.46634399 28.91197205 15.47906494 C33.34430579 15.45971502 36.22803377 14.9179512 39.7121582 12.11352539 C40.95892827 9.21645832 40.95892827 9.21645832 40.7121582 6.11352539 C39.34716528 3.76375601 39.34716528 3.76375601 36.7121582 2.11352539 C33.62742173 1.52772571 30.59012362 1.57684021 27.45825195 1.61743164 C26.56098892 1.61597641 25.66372589 1.61452118 24.73927307 1.61302185 C22.84551745 1.6146796 20.95174818 1.62622702 19.05810547 1.64697266 C16.15640215 1.67595802 13.25652249 1.66757336 10.35473633 1.65454102 C8.51423264 1.66077764 6.67373473 1.66916798 4.83325195 1.67993164 C3.96445908 1.676996 3.0956662 1.67406036 2.20054626 1.67103577 C1.39283279 1.68371994 0.58511932 1.69640411 -0.24707031 1.70947266 C-0.95670425 1.71487564 -1.6663382 1.72027863 -2.3974762 1.72584534 C-4.88881907 2.23677504 -5.80114152 3.07139382 -7.2878418 5.11352539 Z " fill="#FFFFFF" transform="translate(352.287841796875,150.886474609375)"/>
<path d="M0 0 C0.66 0.33 1.32 0.66 2 1 C0.90055216 3.6986447 -0.18673935 5.17795162 -2.32421875 7.21484375 C-5.18037505 10.18774804 -7.15843542 13.29165505 -9.125 16.875 C-9.62580078 17.75478516 -9.62580078 17.75478516 -10.13671875 18.65234375 C-17.30268542 31.36423801 -17.30268542 31.36423801 -18.5625 45.375 C-18.376875 45.91125 -18.19125 46.4475 -18 47 C-13.85458683 47.97355319 -13.85458683 47.97355319 -9.75 47.25 C-6.5414727 44.95819479 -5.68239918 42.20244297 -4.75 38.5625 C-0.83183691 25.17056942 7.20084582 11.90098573 19 4 C19.99 4 20.98 4 22 4 C21.52691406 4.44988281 21.05382812 4.89976562 20.56640625 5.36328125 C8.75771042 16.84971247 -0.37722071 29.28559884 -4.5 45.4375 C-6 49 -6 49 -7.73828125 50.08203125 C-11.66384277 51.34619513 -13.60240267 51.15619895 -17.5 49.625 C-18.325 49.08875 -19.15 48.5525 -20 48 C-20 47.34 -20 46.68 -20 46 C-20.66 46 -21.32 46 -22 46 C-22 43.03 -22 40.06 -22 37 C-21.34 37 -20.68 37 -20 37 C-19.87625 35.824375 -19.87625 35.824375 -19.75 34.625 C-17.38901669 23.21358066 -10.92603904 11.54675294 -3 3 C-2.34 3 -1.68 3 -1 3 C-0.67 2.01 -0.34 1.02 0 0 Z " fill="#FFFFFF" transform="translate(195,203)"/>
<path d="M0 0 C9.12256267 -0.62674095 9.12256267 -0.62674095 12.625 1.875 C14 4 14 4 14 6 C14.928125 6.37125 14.928125 6.37125 15.875 6.75 C18.38710296 8.22770762 18.76107344 9.43955177 20 12 C20.99 12.33 21.98 12.66 23 13 C27.77272727 17.31818182 27.77272727 17.31818182 29 21 C31.00016466 22.20882096 31.00016466 22.20882096 33 23 C33 23.66 33 24.32 33 25 C33.99 25.33 34.98 25.66 36 26 C38.50031654 29.75047482 38.53603554 31.55856266 38 36 C35.5748989 39.35234564 34.1549168 40.77884572 30.0625 41.5625 C24.58324938 40.55610703 20.59154775 37.14409355 17 33 C17 32.34 17 31.68 17 31 C16.01 30.67 15.02 30.34 14 30 C14 29.34 14 28.68 14 28 C13.01 27.67 12.02 27.34 11 27 C11 26.34 11 25.68 11 25 C10.34 25 9.68 25 9 25 C9 24.34 9 23.68 9 23 C8.34 23 7.68 23 7 23 C7 22.34 7 21.68 7 21 C6.01 20.67 5.02 20.34 4 20 C4 19.34 4 18.68 4 18 C3.34 18 2.68 18 2 18 C-2 13.52941176 -2 13.52941176 -2 11 C-2.66 11 -3.32 11 -4 11 C-3.125 4.25 -3.125 4.25 -2 2 C-1.34 2 -0.68 2 0 2 C0 1.34 0 0.68 0 0 Z M-1 6 C-2.40049073 9.07988959 -2.40049073 9.07988959 -0.5625 12.25 C1.71927141 16.01333826 4.69281917 18.53328878 8.05859375 21.31640625 C10.70223754 23.60898266 12.76233756 26.31480507 15 29 C17.58686826 31.43071927 20.25679497 33.74762688 23 36 C23.66644531 36.5671875 24.33289063 37.134375 25.01953125 37.71875 C27.11533957 39.34891872 27.11533957 39.34891872 30.625 38.8125 C34.04919943 38.29877715 34.04919943 38.29877715 36 36 C36.34898129 31.98671512 36.07104796 29.43393113 34 26 C32.33591924 24.30962247 32.33591924 24.30962247 30.375 22.75 C25.03000467 18.22955023 20.2012689 13.2524612 15.3125 8.25 C11.00288766 3.79324624 11.00288766 3.79324624 5.4375 1.5 C2.20557614 2.16295874 1.03733844 3.45332695 -1 6 Z " fill="#FFFFFF" transform="translate(217,83)"/>
<path d="M0 0 C-3.75888012 1.23086755 -7.26356495 0.99499801 -11.1875 0.875 C-22.30570758 0.75585244 -28.05933341 3.39580233 -36 11 C-37.05412716 11.88506903 -38.1159046 12.76116289 -39.1875 13.625 C-42.07196425 15.98429988 -42.07196425 15.98429988 -44.75 18.8125 C-47 21 -47 21 -49 21 C-49 21.66 -49 22.32 -49 23 C-50.61974559 24.71230248 -52.2958946 26.37163262 -54 28 C-54.886875 28.928125 -55.77375 29.85625 -56.6875 30.8125 C-59 33 -59 33 -61 33 C-61.2475 33.639375 -61.495 34.27875 -61.75 34.9375 C-63 37 -63 37 -64.78125 37.8359375 C-68.02496555 38.07578971 -69.27273761 36.70735937 -71.75 34.6875 C-72.54921875 34.05199219 -73.3484375 33.41648438 -74.171875 32.76171875 C-74.77515625 32.18035156 -75.3784375 31.59898437 -76 31 C-76 30.34 -76 29.68 -76 29 C-76.99 28.67 -77.98 28.34 -79 28 C-77.68 28 -76.36 28 -75 28 C-74.67 28.66 -74.34 29.32 -74 30 C-72.35636866 30.72159424 -70.68949614 31.39351421 -69 32 C-69 32.66 -69 33.32 -69 34 C-67.02 34 -65.04 34 -63 34 C-62.67 33.01 -62.34 32.02 -62 31 C-61.34 31 -60.68 31 -60 31 C-59.67 30.01 -59.34 29.02 -59 28 C-58.34 28 -57.68 28 -57 28 C-56.67 27.01 -56.34 26.02 -56 25 C-55.34 25 -54.68 25 -54 25 C-53.67 24.01 -53.34 23.02 -53 22 C-52.34 22 -51.68 22 -51 22 C-50.731875 21.401875 -50.46375 20.80375 -50.1875 20.1875 C-49.00082594 18.00152146 -47.90400887 16.58667406 -46 15 C-45.34 15 -44.68 15 -44 15 C-43.505 13.515 -43.505 13.515 -43 12 C-42.34 12 -41.68 12 -41 12 C-40.67 11.01 -40.34 10.02 -40 9 C-37.56851203 6.67643708 -34.79336712 4.86224475 -32 3 C-31.2884375 2.505 -30.576875 2.01 -29.84375 1.5 C-21.51574865 -3.51961725 -8.82255533 -4.31594553 0 0 Z " fill="#FFFFFF" transform="translate(303,126)"/>
<path d="M0 0 C3.98092593 2.08934125 7.12749984 4.8865197 10.05859375 8.26171875 C10.05859375 8.92171875 10.05859375 9.58171875 10.05859375 10.26171875 C10.71859375 10.59171875 11.37859375 10.92171875 12.05859375 11.26171875 C12.05859375 15.88171875 12.05859375 20.50171875 12.05859375 25.26171875 C11.39859375 25.26171875 10.73859375 25.26171875 10.05859375 25.26171875 C9.79046875 26.23109375 9.52234375 27.20046875 9.24609375 28.19921875 C8.85421875 29.20984375 8.46234375 30.22046875 8.05859375 31.26171875 C7.06859375 31.59171875 6.07859375 31.92171875 5.05859375 32.26171875 C3.50425051 33.79128284 3.50425051 33.79128284 2.05859375 35.63671875 C0.15320997 37.9688291 -1.77900417 40.16367388 -3.94140625 42.26171875 C-4.93140625 41.93171875 -5.92140625 41.60171875 -6.94140625 41.26171875 C-6.61140625 40.60171875 -6.28140625 39.94171875 -5.94140625 39.26171875 C-5.28140625 39.26171875 -4.62140625 39.26171875 -3.94140625 39.26171875 C-3.61140625 38.27171875 -3.28140625 37.28171875 -2.94140625 36.26171875 C-2.28140625 36.26171875 -1.62140625 36.26171875 -0.94140625 36.26171875 C-0.28140625 34.94171875 0.37859375 33.62171875 1.05859375 32.26171875 C1.71859375 32.26171875 2.37859375 32.26171875 3.05859375 32.26171875 C3.38859375 31.27171875 3.71859375 30.28171875 4.05859375 29.26171875 C4.71859375 29.26171875 5.37859375 29.26171875 6.05859375 29.26171875 C8.4615625 22.75876942 10.01759086 17.08443283 8.05859375 10.26171875 C5.3827728 5.52757398 2.18051774 3.88366135 -2.94140625 2.26171875 C-9.10541507 1.26674095 -12.90870019 2.68075482 -17.94140625 6.26171875 C-19.31214411 7.89776071 -20.64195881 9.56849936 -21.94140625 11.26171875 C-23.25543734 12.45008367 -24.59081041 13.61508029 -25.94140625 14.76171875 C-29.01404978 17.37261065 -31.43174579 20.10140558 -33.94140625 23.26171875 C-34.93140625 23.59171875 -35.92140625 23.92171875 -36.94140625 24.26171875 C-36.61140625 22.94171875 -36.28140625 21.62171875 -35.94140625 20.26171875 C-35.28140625 20.26171875 -34.62140625 20.26171875 -33.94140625 20.26171875 C-33.94140625 19.60171875 -33.94140625 18.94171875 -33.94140625 18.26171875 C-32.4453125 16.82421875 -32.4453125 16.82421875 -30.50390625 15.26171875 C-27.78952387 13.11646831 -27.78952387 13.11646831 -25.94140625 10.26171875 C-24.95140625 10.26171875 -23.96140625 10.26171875 -22.94140625 10.26171875 C-22.70550781 9.50503906 -22.46960938 8.74835938 -22.2265625 7.96875 C-18.45004533 0.01395851 -7.94049092 -3.01962331 0 0 Z " fill="#FFFFFF" transform="translate(295.94140625,139.73828125)"/>
<path d="M0 0 C4.75 1.875 4.75 1.875 7 3 C7 3.66 7 4.32 7 5 C7.66 5 8.32 5 9 5 C14.23235863 8.96937551 17.87485505 16.57391444 19 23 C19.75725985 32.80110603 19.68563073 40.5527772 14 49 C14.99 49.66 15.98 50.32 17 51 C17 51.66 17 52.32 17 53 C18.11375 53.433125 18.11375 53.433125 19.25 53.875 C23.40972243 55.57670463 26.30023232 56.97375765 29.25 60.4375 C29.77078125 61.03433594 30.2915625 61.63117188 30.828125 62.24609375 C32 64 32 64 32 67 C32.66 67 33.32 67 34 67 C33.505 68.98 33.505 68.98 33 71 C29 65.25 29 65.25 29 63 C27.515 62.505 27.515 62.505 26 62 C26 61.34 26 60.68 26 60 C25.0409375 59.814375 25.0409375 59.814375 24.0625 59.625 C23.381875 59.41875 22.70125 59.2125 22 59 C21.67 58.34 21.34 57.68 21 57 C19.17489003 56.21984379 17.31393324 55.52204594 15.4375 54.875 C13.91962891 54.34519531 13.91962891 54.34519531 12.37109375 53.8046875 C11.58863281 53.53914063 10.80617188 53.27359375 10 53 C10.78757869 49.31642885 12.28226829 46.38977591 14.0625 43.09765625 C17.56927138 35.25125528 16.74801693 25.00292293 14.7109375 16.83984375 C13.71293173 14.25709256 12.10053246 12.75044372 10 11 C10 10.34 10 9.68 10 9 C9.01 8.67 8.02 8.34 7 8 C7 7.34 7 6.68 7 6 C6.34 6 5.68 6 5 6 C5 5.34 5 4.68 5 4 C4.34 4 3.68 4 3 4 C3 3.34 3 2.68 3 2 C2.01 1.67 1.02 1.34 0 1 C0 0.67 0 0.34 0 0 Z " fill="#FFFFFF" transform="translate(304,127)"/>
<path d="M0 0 C0.99 0.33 1.98 0.66 3 1 C0.8832669 5.01065219 -1.38925484 7.29194113 -5 10 C-5.556875 10.5775 -6.11375 11.155 -6.6875 11.75 C-8 13 -8 13 -10 13 C-10.33 13.99 -10.66 14.98 -11 16 C-12.64429829 17.68873879 -14.31384218 19.35305515 -16 21 C-19.08609787 24.16950592 -19.95545334 25.32066346 -20.25 29.8125 C-20.1675 30.864375 -20.085 31.91625 -20 33 C-17.22296649 34.88838279 -15.81270766 34.99354164 -12.375 34.875 C-8.92667251 34.37157672 -8.92667251 34.37157672 -7.5625 31.9375 C-7.376875 31.298125 -7.19125 30.65875 -7 30 C-6.34 30 -5.68 30 -5 30 C-5 29.34 -5 28.68 -5 28 C-4.01 28 -3.02 28 -2 28 C-1.896875 27.360625 -1.79375 26.72125 -1.6875 26.0625 C-1.460625 25.381875 -1.23375 24.70125 -1 24 C-0.01 23.67 0.98 23.34 2 23 C2.309375 22.34 2.61875 21.68 2.9375 21 C4 19 4 19 6.125 18.25 C7.053125 18.12625 7.053125 18.12625 8 18 C8 18.66 8 19.32 8 20 C6.390625 21.55078125 6.390625 21.55078125 4.25 23.3125 C1.08125295 25.99674618 -1.43514724 28.72760165 -4 32 C-8.16187435 35.64164006 -10.87560382 38 -16.5 38 C-20 37 -20 37 -22.4375 34.1875 C-24 31 -24 31 -24 27 C-23.34 27 -22.68 27 -22 27 C-21.67 25.02 -21.34 23.04 -21 21 C-20.01 21 -19.02 21 -18 21 C-18 20.01 -18 19.02 -18 18 C-17.01 18 -16.02 18 -15 18 C-15 17.01 -15 16.02 -15 15 C-14.01 15 -13.02 15 -12 15 C-12 14.01 -12 13.02 -12 12 C-11.01 12 -10.02 12 -9 12 C-9 11.01 -9 10.02 -9 9 C-8.01 9 -7.02 9 -6 9 C-6 8.01 -6 7.02 -6 6 C-4.17739702 3.83023454 -2.39188999 2.59459332 0 1 C0 0.67 0 0.34 0 0 Z " fill="#FFFFFF" transform="translate(286,182)"/>
<path d="M0 0 C-1.44745751 3.37490093 -3.26003854 5.38636493 -5.9375 7.875 C-9.90992144 11.75728546 -13.44076772 15.83421543 -16.875 20.1875 C-17.33898193 20.76935059 -17.80296387 21.35120117 -18.28100586 21.95068359 C-21.01064774 25.45886941 -23.13734045 28.93545483 -25 33 C-25.66 33 -26.32 33 -27 33 C-27.10570312 33.54269531 -27.21140625 34.08539063 -27.3203125 34.64453125 C-28.15960955 37.55312964 -29.4669549 40.00801119 -30.875 42.6875 C-33.42944651 47.69838068 -35.41094035 52.61548853 -37 58 C-37.33 58.99 -37.66 59.98 -38 61 C-38.66 61 -39.32 61 -40 61 C-39.03763274 44.31896757 -27.95883857 29.68325282 -18 17 C-17.29230469 16.06027344 -16.58460938 15.12054688 -15.85546875 14.15234375 C-14.93701172 13.08693359 -14.93701172 13.08693359 -14 12 C-13.34 12 -12.68 12 -12 12 C-11.67 11.01 -11.34 10.02 -11 9 C-10.34 9 -9.68 9 -9 9 C-8.67 8.01 -8.34 7.02 -8 6 C-7.34 6 -6.68 6 -6 6 C-6 5.34 -6 4.68 -6 4 C-2.47058824 0 -2.47058824 0 0 0 Z " fill="#FFFFFF" transform="translate(163,185)"/>
<path d="M0 0 C2.5 2 2.5 2 4 4 C3.67 4.66 3.34 5.32 3 6 C2.46375 5.525625 1.9275 5.05125 1.375 4.5625 C-1.42842836 2.71813924 -3.69620258 2.37543153 -7 2 C-7 2.66 -7 3.32 -7 4 C-7.7412915 4.63397705 -7.7412915 4.63397705 -8.49755859 5.28076172 C-10.63723884 7.72919011 -10.24708524 9.30992142 -10.0390625 12.5078125 C-9.97976563 13.57644531 -9.92046875 14.64507812 -9.859375 15.74609375 C-9.74335938 17.41865234 -9.74335938 17.41865234 -9.625 19.125 C-9.48794301 21.33567844 -9.3549031 23.54661091 -9.2265625 25.7578125 C-9.16033691 26.7389502 -9.09411133 27.72008789 -9.02587891 28.73095703 C-9.01733887 29.47974121 -9.00879883 30.22852539 -9 31 C-9.33 31.33 -9.66 31.66 -10 32 C-10.17813354 34.12008116 -10.26789228 36.24791612 -10.3125 38.375 C-10.34988281 39.53773437 -10.38726562 40.70046875 -10.42578125 41.8984375 C-10.30466154 45.06064941 -10.30466154 45.06064941 -8.1640625 46.8828125 C-5.14945386 48.43909061 -3.35049204 48.54701911 0 48 C2.87640616 45.62499209 2.87640616 45.62499209 5 43 C3.546875 48.5703125 3.546875 48.5703125 1.25 50.375 C-2.42541484 51.39594857 -5.59544035 51.429171 -9.25 50.3125 C-11.72911594 48.45316305 -12.10594069 46.98411577 -13 44 C-13.21552223 41.02065298 -13.11771571 38.06917066 -13.01171875 35.0859375 C-12.98906448 34.23448151 -12.96641022 33.38302551 -12.94306946 32.50576782 C-12.89325432 30.71203211 -12.83831332 28.91843231 -12.77856445 27.125 C-12.68759323 24.37781544 -12.61297561 21.63055433 -12.54101562 18.8828125 C-12.49054051 17.13799288 -12.43914001 15.39319973 -12.38671875 13.6484375 C-12.36373215 12.82652924 -12.34074554 12.00462097 -12.31706238 11.1578064 C-12.20400137 7.88406158 -12.04182232 5.12546697 -11 2 C-7.33952058 -0.44031962 -4.25894744 -0.73696072 0 0 Z " fill="#FFFFFF" transform="translate(294,55)"/>
<path d="M0 0 C0.66 0 1.32 0 2 0 C1.54680134 5.28334227 0.92746907 10.47455168 -0.0078125 15.6953125 C-1.48418079 25.14554457 -1.41034145 34.63964833 -1.53173828 44.18237305 C-1.56531464 46.58402837 -1.61037064 48.98527214 -1.65625 51.38671875 C-1.6615271 52.12307053 -1.6668042 52.8594223 -1.67224121 53.61808777 C-1.77415906 58.77415906 -1.77415906 58.77415906 -4 61 C-4.04967973 55.30746716 -4.08585156 49.61506238 -4.10986328 43.92236328 C-4.11988036 41.98842163 -4.13349784 40.05449496 -4.15087891 38.12060547 C-4.17531686 35.33036586 -4.18652628 32.54032764 -4.1953125 29.75 C-4.20563507 28.89446533 -4.21595764 28.03893066 -4.22659302 27.1574707 C-4.2275883 21.75320954 -3.48206562 17.19850012 -2 12 C-1.59836489 9.83811224 -1.220477 7.67156973 -0.875 5.5 C-0.70742187 4.4584375 -0.53984375 3.416875 -0.3671875 2.34375 C-0.24601562 1.5703125 -0.12484375 0.796875 0 0 Z " fill="#FFFFFF" transform="translate(121,246)"/>
<path d="M0 0 C7.13513514 -0.47567568 7.13513514 -0.47567568 10.5 1.375 C12.83151715 5.45515501 12.77641639 9.41762093 12 14 C10.125 16.625 10.125 16.625 8 18 C7.34 18 6.68 18 6 18 C5.67 18.99 5.34 19.98 5 21 C3.34211215 22.34423339 1.67423683 23.67618483 0 25 C-0.721875 25.9075 -1.44375 26.815 -2.1875 27.75 C-2.785625 28.4925 -3.38375 29.235 -4 30 C-4.66 30 -5.32 30 -6 30 C-6.33 30.99 -6.66 31.98 -7 33 C-9.0625 34.1875 -9.0625 34.1875 -11 35 C-11.33 34.34 -11.66 33.68 -12 33 C-10.37660195 31.29115995 -8.70680947 29.62553283 -7 28 C-6.34 28 -5.68 28 -5 28 C-5 27.34 -5 26.68 -5 26 C-4.34 26 -3.68 26 -3 26 C-2.67 25.01 -2.34 24.02 -2 23 C-1.34 23 -0.68 23 0 23 C0.20625 22.46375 0.4125 21.9275 0.625 21.375 C2.53250426 18.08021991 5.04819384 15.40636372 8 13 C8.66 13 9.32 13 10 13 C9.505 8.05 9.505 8.05 9 3 C5.7 2.67 2.4 2.34 -1 2 C-0.67 1.34 -0.34 0.68 0 0 Z " fill="#FFFFFF" transform="translate(354,83)"/>
<path d="M0 0 C1.40378906 -0.01063477 1.40378906 -0.01063477 2.8359375 -0.02148438 C9.66285903 0.04227279 9.66285903 0.04227279 11.91064453 1.96459961 C12.31138184 2.45065674 12.71211914 2.93671387 13.125 3.4375 C10.11468256 4.37173645 9.25849732 4.48199911 6.125 3.4375 C-1.7209479 2.87241788 -8.65164145 3.20404586 -15.875 6.4375 C-16.55691406 6.73011719 -17.23882812 7.02273437 -17.94140625 7.32421875 C-20.12880826 8.58363203 -21.22771941 9.87539414 -22.75 11.875 C-25.41126416 15.1336908 -27.9266046 16.83933996 -31.875 18.4375 C-30.45726538 14.89316346 -29.19887762 14.09943881 -25.875 12.4375 C-24.60695434 10.4039052 -24.60695434 10.4039052 -23.875 8.4375 C-23.215 8.4375 -22.555 8.4375 -21.875 8.4375 C-21.875 7.7775 -21.875 7.1175 -21.875 6.4375 C-21.215 6.4375 -20.555 6.4375 -19.875 6.4375 C-19.875 5.7775 -19.875 5.1175 -19.875 4.4375 C-13.14984199 0.79341238 -7.59616071 -0.16630013 0 0 Z " fill="#FFFFFF" transform="translate(210.875,150.5625)"/>
<path d="M0 0 C0.33 0.99 0.66 1.98 1 3 C-0.0411792 3.89639984 -1.08297661 4.79208163 -2.125 5.6875 C-3.07439453 6.51701172 -3.07439453 6.51701172 -4.04296875 7.36328125 C-6 9 -6 9 -7.80078125 10.23046875 C-10.18036025 11.89447029 -11.84946656 13.15225905 -12.37109375 16.08984375 C-12.41356458 18.5617097 -12.41356458 18.5617097 -12 22 C-8.67480584 23.69903526 -8.67480584 23.69903526 -5 25 C-1.75150023 23.27773504 -1.75150023 23.27773504 -1 20 C-0.01 19.67 0.98 19.34 2 19 C2.515625 18.484375 3.03125 17.96875 3.5625 17.4375 C4.036875 16.963125 4.51125 16.48875 5 16 C5.66 16 6.32 16 7 16 C7 16.66 7 17.32 7 18 C5.54534559 19.25629245 4.08312234 20.50578551 2.5703125 21.69140625 C0.83337989 23.05302535 0.83337989 23.05302535 -0.875 25.3125 C-3.51322429 27.40756047 -5.67568294 27.6960216 -9.01953125 27.5078125 C-11.33723272 26.91353007 -12.44028968 26.18932596 -14.125 24.5 C-16 21 -16 21 -15.875 17.1875 C-13.45099239 9.88745396 -5.9705131 4.42973553 0 0 Z " fill="#FFFFFF" transform="translate(230,418)"/>
<path d="M0 0 C0 0.66 0 1.32 0 2 C-1.35546875 3.33203125 -1.35546875 3.33203125 -3.1875 4.8125 C-7.42255596 8.33177186 -11.23605939 12.01580862 -14.6875 16.3125 C-15.450625 17.199375 -16.21375 18.08625 -17 19 C-17.66 19 -18.32 19 -19 19 C-19 19.66 -19 20.32 -19 21 C-20.57421875 22.55078125 -20.57421875 22.55078125 -22.6875 24.3125 C-25.94648545 27.08719565 -29.00776207 29.93478065 -32 33 C-33.60280778 34.6055244 -35.2070835 36.20958414 -36.8125 37.8125 C-37.60269531 38.60269531 -38.39289063 39.39289063 -39.20703125 40.20703125 C-39.79871094 40.79871094 -40.39039063 41.39039063 -41 42 C-41 38.06830895 -39.60580385 36.83572772 -37 34 C-36.34 34 -35.68 34 -35 34 C-35 33.34 -35 32.68 -35 32 C-34.29875 31.443125 -33.5975 30.88625 -32.875 30.3125 C-29.97590805 27.9806217 -27.78337058 25.53981998 -25.4296875 22.68359375 C-24.01690168 21.01990335 -22.63193667 19.45110044 -21 18 C-20.34 18 -19.68 18 -19 18 C-18.67 17.01 -18.34 16.02 -18 15 C-16.2578125 13.31640625 -16.2578125 13.31640625 -14.125 11.5625 C-11.89360158 9.72221385 -10.0837276 8.1139737 -8.3671875 5.77734375 C-7.91601562 5.19082031 -7.46484375 4.60429687 -7 4 C-6.34 4 -5.68 4 -5 4 C-5 3.01 -5 2.02 -5 1 C-2 0 -2 0 0 0 Z " fill="#FFFFFF" transform="translate(259,164)"/>
<path d="M0 0 C0.99 0.33 1.98 0.66 3 1 C2.54658132 2.27259511 2.08704773 3.54301243 1.625 4.8125 C1.36976562 5.52019531 1.11453125 6.22789062 0.8515625 6.95703125 C0 9 0 9 -2 12 C-2.66 12 -3.32 12 -4 12 C-6.21399303 15.79541663 -7.00980198 19.75629421 -8 24 C-5.39240571 25.77316412 -3.82374719 26.00326394 -0.625 26.0625 C3.75271514 24.7793766 5.10929057 23.0758427 7.73828125 19.49609375 C8.15464844 19.00238281 8.57101563 18.50867188 9 18 C9.66 18 10.32 18 11 18 C10 20 9 22 8 24 C7.34 24 6.68 24 6 24 C5.79375 24.639375 5.5875 25.27875 5.375 25.9375 C4 28 4 28 1.1875 28.875 C-2.97590091 29.03827062 -5.33291228 28.0347441 -8.8125 25.875 C-10.78796567 22.75584367 -10.75583276 19.50431554 -10 16 C-7.625 13.25 -7.625 13.25 -5 11 C-3.70480005 8.83379456 -3.70480005 8.83379456 -3 7 C-2.34 7 -1.68 7 -1 7 C-0.67 4.69 -0.34 2.38 0 0 Z " fill="#FFFFFF" transform="translate(115,307)"/>
<path d="M0 0 C0 3 0 3 -1.40466309 4.76542664 C-2.06196411 5.41606583 -2.71926514 6.06670502 -3.39648438 6.73706055 C-4.1372522 7.47760178 -4.87802002 8.21814301 -5.64123535 8.98112488 C-6.45056519 9.77497086 -7.25989502 10.56881683 -8.09375 11.38671875 C-8.91500366 12.20372757 -9.73625732 13.02073639 -10.58239746 13.86250305 C-13.21466272 16.47793609 -15.85715306 19.08276413 -18.5 21.6875 C-20.28323382 23.45569294 -22.06579492 25.2245646 -23.84765625 26.99414062 C-28.22398671 31.33734147 -32.60876374 35.67187321 -37 40 C-37.66 39.67 -38.32 39.34 -39 39 C-37.38405168 36.95880212 -35.7143618 34.95927063 -34 33 C-33.34 33 -32.68 33 -32 33 C-31.5978125 32.13375 -31.5978125 32.13375 -31.1875 31.25 C-29.9611378 28.92636635 -28.75156566 26.96175354 -27 25 C-26.01 25 -25.02 25 -24 25 C-24 24.34 -24 23.68 -24 23 C-23.34 23 -22.68 23 -22 23 C-22 22.34 -22 21.68 -22 21 C-21.29875 20.443125 -20.5975 19.88625 -19.875 19.3125 C-17.54727543 17.4401998 -15.93156585 15.8310232 -14.0625 13.5625 C-11.30325081 10.24432597 -8.35353256 7.71136675 -5 5 C-3.28989173 3.37068425 -1.64628842 1.69470867 0 0 Z " fill="#FFFFFF" transform="translate(369,314)"/>
<path d="M0 0 C0.33 0 0.66 0 1 0 C1.1254736 4.99462149 1.21520085 9.98828654 1.2746582 14.98413086 C1.29949431 16.67635109 1.33337591 18.36846769 1.37719727 20.06030273 C1.67221021 31.76016894 0.53265036 41.1247052 -4 52 C-4.66 52 -5.32 52 -6 52 C-6.33 52.66 -6.66 53.32 -7 54 C-6.51219648 50.87805745 -5.71747247 48.27525548 -4.5625 45.3125 C-0.95626191 35.81651176 -0.76442185 26.63774598 -0.9375 16.5625 C-0.97186745 14.06385896 -1.00202309 11.56515534 -1.02734375 9.06640625 C-1.04531006 7.97271729 -1.06327637 6.87902832 -1.08178711 5.75219727 C-1 3 -1 3 0 0 Z " fill="#FFFFFF" transform="translate(133,271)"/>
<path d="M0 0 C3.8921104 3.72288821 3.8921104 3.72288821 4.16796875 6.98828125 C4.22216507 13.4376437 3.42147719 18.02583816 -1 23 C-1.66 23 -2.32 23 -3 23 C-3 23.66 -3 24.32 -3 25 C-4.57421875 26.515625 -4.57421875 26.515625 -6.6875 28.25 C-9.26252383 30.43060997 -11.58889639 32.5440666 -13.6875 35.1875 C-15.93255968 37.91797798 -18.11305744 39.97133766 -21 42 C-21.66 42 -22.32 42 -23 42 C-22.34 40.68 -21.68 39.36 -21 38 C-20.34 38 -19.68 38 -19 38 C-19 37.34 -19 36.68 -19 36 C-18.34 36 -17.68 36 -17 36 C-17 35.34 -17 34.68 -17 34 C-15.39123431 32.13721867 -13.63188427 30.71506725 -11.68359375 29.20703125 C-8.97295078 26.97775428 -6.62280829 24.64631306 -4.25 22.0625 C-3.47140625 21.22847656 -2.6928125 20.39445312 -1.890625 19.53515625 C1.47469886 15.02256289 1.10059801 11.12826878 0.5625 5.6875 C0.46066406 4.61886719 0.35882813 3.55023438 0.25390625 2.44921875 C0.12822266 1.23685547 0.12822266 1.23685547 0 0 Z " fill="#FFFFFF" transform="translate(322,201)"/>
<path d="M0 0 C0.598125 0.20625 1.19625 0.4125 1.8125 0.625 C1.33868896 0.95008545 0.86487793 1.2751709 0.37670898 1.61010742 C-6.37963953 6.43701058 -11.82435768 12.30081299 -17.38867188 18.43164062 C-21.81766726 23.06699127 -24.80414116 25.57637067 -31.34204102 25.80932617 C-33.1875 25.625 -33.1875 25.625 -35.1875 24.625 C-35.1875 23.965 -35.1875 23.305 -35.1875 22.625 C-35.8475 22.625 -36.5075 22.625 -37.1875 22.625 C-37.5175 21.635 -37.8475 20.645 -38.1875 19.625 C-37.1975 19.625 -36.2075 19.625 -35.1875 19.625 C-34.754375 20.12 -34.32125 20.615 -33.875 21.125 C-32.19472572 22.88364372 -32.19472572 22.88364372 -29.3125 23.125 C-25.22355804 22.47076929 -23.90153353 20.64059281 -21.1875 17.625 C-20.5275 17.625 -19.8675 17.625 -19.1875 17.625 C-18.8575 16.635 -18.5275 15.645 -18.1875 14.625 C-17.5275 14.625 -16.8675 14.625 -16.1875 14.625 C-16.1875 13.965 -16.1875 13.305 -16.1875 12.625 C-15.5275 12.625 -14.8675 12.625 -14.1875 12.625 C-13.8575 11.635 -13.5275 10.645 -13.1875 9.625 C-12.5275 9.625 -11.8675 9.625 -11.1875 9.625 C-10.8575 8.635 -10.5275 7.645 -10.1875 6.625 C-9.5275 6.625 -8.8675 6.625 -8.1875 6.625 C-8.1875 5.965 -8.1875 5.305 -8.1875 4.625 C-7.5275 4.625 -6.8675 4.625 -6.1875 4.625 C-5.8575 3.635 -5.5275 2.645 -5.1875 1.625 C-2.1875 -0.375 -2.1875 -0.375 0 0 Z " fill="#FFFFFF" transform="translate(327.1875,238.375)"/>
<path d="M0 0 C0.66 0.33 1.32 0.66 2 1 C-0.1217363 2.33878572 -2.24705188 3.67115476 -4.375 5 C-4.97828125 5.3815625 -5.5815625 5.763125 -6.203125 6.15625 C-10.7734375 9 -10.7734375 9 -13 9 C-13.226875 9.598125 -13.45375 10.19625 -13.6875 10.8125 C-15.37345471 13.62242451 -17.16316151 14.36093776 -20 16 C-21.85692497 17.55677546 -23.65828519 19.1608763 -25.44921875 20.79296875 C-27 22 -27 22 -29 22 C-24.91573994 11.95673755 -9.58515213 4.20401409 0 0 Z " fill="#FFFFFF" transform="translate(266,412)"/>
<path d="M0 0 C0.33 0 0.66 0 1 0 C2.08786602 7.93835913 1.94991399 15.63625638 1.5625 23.625 C1.51029297 24.81996094 1.45808594 26.01492187 1.40429688 27.24609375 C1.27589095 30.16441033 1.14099488 33.08226918 1 36 C0.34 36 -0.32 36 -1 36 C-1.02465098 31.03377651 -1.04283649 26.06758834 -1.05493164 21.10131836 C-1.0599719 19.41055684 -1.06680405 17.71979971 -1.07543945 16.02905273 C-1.08751857 13.60399293 -1.09323123 11.17899056 -1.09765625 8.75390625 C-1.10281754 7.99348526 -1.10797882 7.23306427 -1.11329651 6.44960022 C-1.11349238 4.6326743 -1.06197277 2.81586873 -1 1 C-0.67 0.67 -0.34 0.34 0 0 Z " fill="#FFFFFF" transform="translate(298,61)"/>
<path d="M0 0 C0.556875 0.28875 1.11375 0.5775 1.6875 0.875 C1.6875 1.535 1.6875 2.195 1.6875 2.875 C2.3475 2.875 3.0075 2.875 3.6875 2.875 C3.3575 3.865 3.0275 4.855 2.6875 5.875 C1.945 5.25625 1.2025 4.6375 0.4375 4 C-4.04281757 0.53793642 -7.22722938 -0.61142846 -12.8515625 -0.52734375 C-17.20108619 0.18376885 -20.68228918 2.47202357 -24.3125 4.875 C-23.94475772 2.40957287 -23.72172938 1.20564918 -21.74609375 -0.390625 C-13.59878147 -4.40847763 -8.00832152 -3.8959402 0 0 Z " fill="#FFFFFF" transform="translate(318.3125,195.125)"/>
<path d="M0 0 C0 3 0 3 -1.875 5.125 C-2.90808071 6.0925828 -3.95171687 7.04890868 -5 8 C-5.82113281 8.76699219 -6.64226562 9.53398437 -7.48828125 10.32421875 C-14.7299843 17 -14.7299843 17 -17 17 C-17 17.66 -17 18.32 -17 19 C-18.32 19.33 -19.64 19.66 -21 20 C-21 20.66 -21 21.32 -21 22 C-22.32 21.67 -23.64 21.34 -25 21 C-23.71283353 19.99421411 -22.42011342 18.99553202 -21.125 18 C-20.40570313 17.443125 -19.68640625 16.88625 -18.9453125 16.3125 C-17 15 -17 15 -15 15 C-14.67 14.01 -14.34 13.02 -14 12 C-13.236875 11.54625 -12.47375 11.0925 -11.6875 10.625 C-8.68584229 8.81004418 -7.1443702 6.7359206 -5 4 C-4.34 4 -3.68 4 -3 4 C-2.67 3.01 -2.34 2.02 -2 1 C-1.34 0.67 -0.68 0.34 0 0 Z " fill="#FFFFFF" transform="translate(329,354)"/>
<path d="M0 0 C0.99 0.66 1.98 1.32 3 2 C0.03223645 8.67746798 -5.22546308 13.66284781 -11 18 C-11.66 18 -12.32 18 -13 18 C-13.66 19.32 -14.32 20.64 -15 22 C-15.66 22 -16.32 22 -17 22 C-16.505 20.515 -16.505 20.515 -16 19 C-15.34 19 -14.68 19 -14 19 C-13.67 18.01 -13.34 17.02 -13 16 C-12.34 16 -11.68 16 -11 16 C-10.67 15.01 -10.34 14.02 -10 13 C-8.36739286 11.62517293 -6.69774938 10.29352333 -5 9 C-1.89109495 6.46681811 -1.1025724 3.81659675 0 0 Z " fill="#FFFFFF" transform="translate(223,172)"/>
<path d="M0 0 C-1.24460783 0.67667998 -2.49596896 1.34094719 -3.75 2 C-4.44609375 2.37125 -5.1421875 2.7425 -5.859375 3.125 C-8 4 -8 4 -12 4 C-12.33 4.66 -12.66 5.32 -13 6 C-15.5060133 7.28052934 -17.99795803 8.47481345 -20.5625 9.625 C-21.62887695 10.11226563 -21.62887695 10.11226563 -22.71679688 10.609375 C-24.47529252 11.41190993 -26.23732367 12.20668959 -28 13 C-28.33 12.34 -28.66 11.68 -29 11 C-26.3587447 9.55352609 -23.71248464 8.11782644 -21.0625 6.6875 C-20.32708984 6.28337891 -19.59167969 5.87925781 -18.83398438 5.46289062 C-5.34570966 -1.78190322 -5.34570966 -1.78190322 0 0 Z " fill="#FFFFFF" transform="translate(297,399)"/>
<path d="M0 0 C0.53625 0.268125 1.0725 0.53625 1.625 0.8125 C-1.67559767 4.21311579 -5.10753028 7.32871554 -8.7265625 10.38671875 C-10.70935999 12.10169762 -12.55842059 13.92325741 -14.375 15.8125 C-13.5625 12.375 -13.5625 12.375 -12.375 8.8125 C-11.385 8.4825 -10.395 8.1525 -9.375 7.8125 C-9.045 6.8225 -8.715 5.8325 -8.375 4.8125 C-3.19514388 -0.2522482 -3.19514388 -0.2522482 0 0 Z " fill="#FFFFFF" transform="translate(271.375,130.1875)"/>
<path d="M0 0 C0.99 0.33 1.98 0.66 3 1 C1.12952125 2.44371903 -0.74600697 3.87993439 -2.625 5.3125 C-3.66914063 6.11300781 -4.71328125 6.91351563 -5.7890625 7.73828125 C-10.29432125 10.91169344 -13.42183431 13 -19 13 C-19.33 13.66 -19.66 14.32 -20 15 C-20 12 -20 12 -18 10 C-16.66683055 9.66601183 -15.33347714 9.3327576 -14 9 C-12.6175076 8.21455326 -11.26284171 7.37845385 -9.9375 6.5 C-7.54341042 4.91925755 -5.75440404 3.91813468 -3 3 C-1.33289654 1.50014391 -1.33289654 1.50014391 0 0 Z " fill="#FFFFFF" transform="translate(318,384)"/>
<path d="M0 0 C1.11722805 3.35168414 0.93118228 3.8501806 -0.25 7 C-3.0442491 14.8828587 -5.21319678 22.65988592 -6 31 C-6.33 31 -6.66 31 -7 31 C-7.64936367 23.51067238 -6.75263691 17.02152211 -4.625 9.875 C-4.40368408 9.12871338 -4.18236816 8.38242676 -3.9543457 7.61352539 C-2.28243681 2.28243681 -2.28243681 2.28243681 0 0 Z " fill="#FFFFFF" transform="translate(141,240)"/>
<path d="M0 0 C4.75 1.875 4.75 1.875 7 3 C7 3.66 7 4.32 7 5 C7.66 5 8.32 5 9 5 C13.47495234 8.39479143 16.10154724 13.8074283 18 19 C17.67 19.99 17.34 20.98 17 22 C17 21.34 17 20.68 17 20 C16.34 20 15.68 20 15 20 C14.731875 19.071875 14.46375 18.14375 14.1875 17.1875 C13.06289965 14.1688359 12.29293427 13.0844857 10 11 C10 10.34 10 9.68 10 9 C9.01 8.67 8.02 8.34 7 8 C7 7.34 7 6.68 7 6 C6.34 6 5.68 6 5 6 C5 5.34 5 4.68 5 4 C4.34 4 3.68 4 3 4 C3 3.34 3 2.68 3 2 C2.01 1.67 1.02 1.34 0 1 C0 0.67 0 0.34 0 0 Z " fill="#FFFFFF" transform="translate(304,127)"/>
<path d="M0 0 C0.66 0.33 1.32 0.66 2 1 C-6.75392075 7.43145198 -14.50741818 11.03367612 -25 14 C-25 13.34 -25 12.68 -25 12 C-24.28457031 11.72027344 -23.56914062 11.44054687 -22.83203125 11.15234375 C-15.76521706 8.30916236 -9.21168754 5.03739406 -2.6171875 1.2578125 C-1.75351562 0.84273438 -0.88984375 0.42765625 0 0 Z " fill="#FFFFFF" transform="translate(302,376)"/>
<path d="M0 0 C0.66 0 1.32 0 2 0 C0.43387807 3.84411747 -2.02094121 6.15950209 -5 9 C-6.2684375 10.3303125 -6.2684375 10.3303125 -7.5625 11.6875 C-9.69612724 13.71171046 -11.30823065 14.90335323 -14 16 C-13.67 15.01 -13.34 14.02 -13 13 C-12.34 13 -11.68 13 -11 13 C-10.67 12.01 -10.34 11.02 -10 10 C-8.0625 7.8125 -8.0625 7.8125 -6 6 C-5.34 6 -4.68 6 -4 6 C-3.67 5.01 -3.34 4.02 -3 3 C-2.34 3 -1.68 3 -1 3 C-0.67 2.01 -0.34 1.02 0 0 Z " fill="#FFFFFF" transform="translate(177,169)"/>
<path d="M0 0 C6.79935253 -0.41628689 11.37239562 1.24826375 17 5 C17 5.66 17 6.32 17 7 C12.23966942 5.14876033 12.23966942 5.14876033 10.1875 3.875 C6.79086864 2.51634746 3.63899603 2.87870013 0 3 C0 2.01 0 1.02 0 0 Z " fill="#FFFFFF" transform="translate(330,236)"/>
<path d="M0 0 C1.98 0 3.96 0 6 0 C6.33 0.99 6.66 1.98 7 3 C7.66 3 8.32 3 9 3 C9 6.63 9 10.26 9 14 C8.01 14 7.02 14 6 14 C6.33 10.7 6.66 7.4 7 4 C6.030625 3.71125 5.06125 3.4225 4.0625 3.125 C1 2 1 2 0 0 Z " fill="#FFFFFF" transform="translate(385,151)"/>
<path d="M0 0 C0.33 0 0.66 0 1 0 C1.19390729 2.31197155 1.37996367 4.6246029 1.5625 6.9375 C1.66691406 8.22527344 1.77132813 9.51304688 1.87890625 10.83984375 C1.91886719 11.88269531 1.95882813 12.92554687 2 14 C1.67 14.33 1.34 14.66 1 15 C0.76712992 16.68183948 0.58735834 18.3712416 0.4375 20.0625 C0.35371094 20.98160156 0.26992188 21.90070313 0.18359375 22.84765625 C0.12300781 23.55792969 0.06242187 24.26820312 0 25 C-0.33 25 -0.66 25 -1 25 C-1.11039334 16.59784035 -0.95458649 8.35263176 0 0 Z " fill="#FFFFFF" transform="translate(283,72)"/>
<path d="M0 0 C2.5 2 2.5 2 4 4 C3.67 4.66 3.34 5.32 3 6 C2.484375 5.505 1.96875 5.01 1.4375 4.5 C-1.84816934 2.47804964 -4.20442221 2.72395798 -8 3 C-8.99 3.33 -9.98 3.66 -11 4 C-11 3.34 -11 2.68 -11 2 C-7.33952058 -0.44031962 -4.25894744 -0.73696072 0 0 Z " fill="#FFFFFF" transform="translate(294,55)"/>
<path d="M0 0 C0.33 0.66 0.66 1.32 1 2 C2.99495197 2.22892891 4.99030934 2.4553767 6.98828125 2.65625 C9.63689393 3.10882848 11.14919917 4.07208247 13 6 C13 6.66 13 7.32 13 8 C13.66 8 14.32 8 15 8 C14.67 8.66 14.34 9.32 14 10 C13.62230469 9.55011719 13.24460937 9.10023438 12.85546875 8.63671875 C10.5060088 6.56424776 8.26926656 5.82127918 5.3125 4.8125 C4.31863281 4.46832031 3.32476562 4.12414062 2.30078125 3.76953125 C1.16189453 3.38861328 1.16189453 3.38861328 0 3 C0 2.01 0 1.02 0 0 Z " fill="#FFFFFF" transform="translate(314,177)"/>
<path d="M0 0 C0 3.52232517 -0.56731481 4.05751328 -2.8125 6.625 C-3.59560547 7.54152344 -3.59560547 7.54152344 -4.39453125 8.4765625 C-6 10 -6 10 -9 11 C-9 10.01 -9 9.02 -9 8 C-8.34 8 -7.68 8 -7 8 C-7 7.34 -7 6.68 -7 6 C-5.46875 4.4921875 -5.46875 4.4921875 -3.5 2.875 C-2.8503125 2.33617188 -2.200625 1.79734375 -1.53125 1.2421875 C-0.77328125 0.62730469 -0.77328125 0.62730469 0 0 Z " fill="#FFFFFF" transform="translate(344,93)"/>
<path d="M0 0 C0.66 0 1.32 0 2 0 C2 0.66 2 1.32 2 2 C1.34 2 0.68 2 0 2 C-0.33 2.99 -0.66 3.98 -1 5 C-5.455 5.495 -5.455 5.495 -10 6 C-8.6993321 3.3986642 -7.69919978 3.35811992 -5 2.4375 C-2.26066983 1.60962158 -2.26066983 1.60962158 0 0 Z " fill="#FFFFFF" transform="translate(341,118)"/>
<path d="M0 0 C0.33 0.66 0.66 1.32 1 2 C-0.375 3.5 -0.375 3.5 -2 5 C-2.66 5 -3.32 5 -4 5 C-4.33 5.99 -4.66 6.98 -5 8 C-7.0625 9.1875 -7.0625 9.1875 -9 10 C-9.33 9.34 -9.66 8.68 -10 8 C-8.37660195 6.29115995 -6.70680947 4.62553283 -5 3 C-4.34 3 -3.68 3 -3 3 C-3 2.34 -3 1.68 -3 1 C-2.01 0.67 -1.02 0.34 0 0 Z " fill="#FFFFFF" transform="translate(352,108)"/>
<path d="M0 0 C0.66 0 1.32 0 2 0 C1.52723148 4.25491665 -0.92547477 6.22542845 -4 9 C-4.99 9.495 -4.99 9.495 -6 10 C-5.75 7.625 -5.75 7.625 -5 5 C-3 3.875 -3 3.875 -1 3 C-0.67 2.01 -0.34 1.02 0 0 Z " fill="#FFFFFF" transform="translate(332,104)"/>
<path d="M0 0 C0.33 0.99 0.66 1.98 1 3 C-1.31 4.98 -3.62 6.96 -6 9 C-6.33 8.01 -6.66 7.02 -7 6 C-4.69 4.02 -2.38 2.04 0 0 Z " fill="#FFFFFF" transform="translate(230,418)"/>
<path d="M0 0 C0.66 0.33 1.32 0.66 2 1 C0.4422692 4.82352106 -1.91595258 7.29205593 -5 10 C-5.99 10 -6.98 10 -8 10 C-7.21654285 8.82780457 -6.42297164 7.66236332 -5.625 6.5 C-5.18414062 5.8503125 -4.74328125 5.200625 -4.2890625 4.53125 C-3.86367187 4.0259375 -3.43828125 3.520625 -3 3 C-2.34 3 -1.68 3 -1 3 C-0.67 2.01 -0.34 1.02 0 0 Z " fill="#FFFFFF" transform="translate(195,203)"/>
<path d="M0 0 C0.99 0.33 1.98 0.66 3 1 C2.01 1.495 2.01 1.495 1 2 C0.67 2.99 0.34 3.98 0 5 C-4.45714286 9 -4.45714286 9 -7 9 C-6.67 8.01 -6.34 7.02 -6 6 C-5.34 6 -4.68 6 -4 6 C-3.67 5.01 -3.34 4.02 -3 3 C-2.34 3 -1.68 3 -1 3 C-0.67 2.01 -0.34 1.02 0 0 Z " fill="#FFFFFF" transform="translate(204,194)"/>
<path d="M0 0 C0.66 0 1.32 0 2 0 C1.67 1.98 1.34 3.96 1 6 C2.32 6.33 3.64 6.66 5 7 C5 7.33 5 7.66 5 8 C3.35 8 1.7 8 0 8 C-0.79953138 4.71303767 -1.09658936 3.28976808 0 0 Z " fill="#FFFFFF" transform="translate(338,216)"/>
<path d="M0 0 C3 0 3 0 4.9375 1.875 C5.618125 2.57625 6.29875 3.2775 7 4 C9.13309192 5.23512079 9.13309192 5.23512079 11 6 C5.25 6.125 5.25 6.125 3 5 C3 4.34 3 3.68 3 3 C2.34 3 1.68 3 1 3 C0.67 2.01 0.34 1.02 0 0 Z " fill="#FFFFFF" transform="translate(289,258)"/>
<path d="M0 0 C3 4 3 4 2.8125 6.5625 C2 9 2 9 0 12 C0 8.04 0 4.08 0 0 Z " fill="#FFFFFF" transform="translate(305,152)"/>
<path d="M0 0 C0.66 0.33 1.32 0.66 2 1 C0.86500606 4.29148243 0.00716624 4.9959869 -3.125 6.75 C-4.548125 7.36875 -4.548125 7.36875 -6 8 C-5.34 6.68 -4.68 5.36 -4 4 C-3.34 4 -2.68 4 -2 4 C-1.34 2.68 -0.68 1.36 0 0 Z " fill="#FFFFFF" transform="translate(351,85)"/>
<path d="M0 0 C0.99 0.33 1.98 0.66 3 1 C1.19587357 4.26460973 0.16605307 5.88929795 -3 8 C-3.1875 5.625 -3.1875 5.625 -3 3 C-2.01 2.34 -1.02 1.68 0 1 C0 0.67 0 0.34 0 0 Z " fill="#FFFFFF" transform="translate(286,182)"/>
<path d="M0 0 C1.5 1.3125 1.5 1.3125 3 3 C3 3.99 3 4.98 3 6 C3.99 6.33 4.98 6.66 6 7 C6 7.66 6 8.32 6 9 C4.125 8.8125 4.125 8.8125 2 8 C0.47835901 5.10888212 0 3.28176588 0 0 Z " fill="#FFFFFF" transform="translate(325,114)"/>
</svg>
